<?xml version="1.0" encoding="UTF-8" standalone="no"?>
<!DOCTYPE svg PUBLIC "-//W3C//DTD SVG 1.1//EN"
 "http://www.w3.org/Graphics/SVG/1.1/DTD/svg11.dtd">
<!-- Generated by graphviz version 15.1.0 (0)
 -->
<!-- Title: risk_management Pages: 1 -->
<svg width="619pt" height="309pt"
 viewBox="0.00 0.00 619.00 309.00" xmlns="http://www.w3.org/2000/svg" xmlns:xlink="http://www.w3.org/1999/xlink">
<g id="graph0" class="graph" transform="scale(1 1) rotate(0) translate(4 305.35)">
<title>risk_management</title>
<polygon fill="white" stroke="none" points="-4,4 -4,-305.35 615,-305.35 615,4 -4,4"/>
<g id="clust1" class="cluster">
<title>cluster_risk_analysis</title>
<path fill="none" stroke="lightsalmon" stroke-dasharray="5,2" d="M20,-8C20,-8 335,-8 335,-8 341,-8 347,-14 347,-20 347,-20 347,-281.35 347,-281.35 347,-287.35 341,-293.35 335,-293.35 335,-293.35 20,-293.35 20,-293.35 14,-293.35 8,-287.35 8,-281.35 8,-281.35 8,-20 8,-20 8,-14 14,-8 20,-8"/>
<text xml:space="preserve" text-anchor="middle" x="177.5" y="-276.05" font-family="Fira Sans" font-size="14.00">Bedrohungs&#45; und Risikoanalyse</text>
</g>
<g id="clust2" class="cluster">
<title>cluster_risk_treatment</title>
<path fill="none" stroke="lightgreen" stroke-dasharray="5,2" d="M367,-112.05C367,-112.05 591,-112.05 591,-112.05 597,-112.05 603,-118.05 603,-124.05 603,-124.05 603,-281.35 603,-281.35 603,-287.35 597,-293.35 591,-293.35 591,-293.35 367,-293.35 367,-293.35 361,-293.35 355,-287.35 355,-281.35 355,-281.35 355,-124.05 355,-124.05 355,-118.05 361,-112.05 367,-112.05"/>
<text xml:space="preserve" text-anchor="middle" x="479" y="-276.05" font-family="Fira Sans" font-size="14.00">Risikobehandlung</text>
</g>
<!-- threats -->
<g id="node1" class="node">
<title>threats</title>
<ellipse fill="none" stroke="red" cx="193" cy="-242.1" rx="71.2" ry="18"/>
<text xml:space="preserve" text-anchor="middle" x="193" y="-237.43" font-family="Fira Sans" font-size="14.00">Bedrohungen</text>
</g>
<!-- assets -->
<g id="node2" class="node">
<title>assets</title>
<ellipse fill="none" stroke="black" cx="77" cy="-138.05" rx="60.68" ry="18"/>
<text xml:space="preserve" text-anchor="middle" x="77" y="-133.38" font-family="Fira Sans" font-size="14.00">Schutzziele</text>
</g>
<!-- threats&#45;&gt;assets -->
<g id="edge1" class="edge">
<title>threats&#45;&gt;assets</title>
<path fill="none" stroke="black" d="M164.23,-225.27C153.47,-218.74 141.46,-210.69 131.5,-202.1 118.16,-190.6 105.18,-175.78 95.24,-163.4"/>
<polygon fill="black" stroke="black" points="97.55,-161.8 90.4,-157.25 93.15,-165.26 97.55,-161.8"/>
<text xml:space="preserve" text-anchor="middle" x="150.25" y="-193.55" font-family="Fira Sans" font-size="9.00">betreffen</text>
</g>
<!-- risks -->
<g id="node3" class="node">
<title>risks</title>
<ellipse fill="none" stroke="black" cx="235" cy="-34" rx="42.79" ry="18"/>
<text xml:space="preserve" text-anchor="middle" x="235" y="-29.32" font-family="Fira Sans" font-size="14.00">Risiken</text>
</g>
<!-- threats&#45;&gt;risks -->
<g id="edge2" class="edge">
<title>threats&#45;&gt;risks</title>
<path fill="none" stroke="black" d="M187.64,-223.81C180.51,-197.95 170.23,-147.95 183,-108 188.96,-89.37 201.6,-71.43 212.93,-58"/>
<polygon fill="black" stroke="black" points="214.88,-60.03 218.04,-52.16 210.67,-56.34 214.88,-60.03"/>
<text xml:space="preserve" text-anchor="middle" x="208.5" y="-135.5" font-family="Fira Sans" font-size="9.00">verursachen</text>
</g>
<!-- system -->
<g id="node4" class="node">
<title>system</title>
<ellipse fill="none" stroke="blue" cx="291" cy="-138.05" rx="47.91" ry="30.05"/>
<text xml:space="preserve" text-anchor="middle" x="291" y="-142" font-family="Fira Sans" font-size="14.00">System</text>
<text xml:space="preserve" text-anchor="middle" x="291" y="-124.75" font-family="Fira Sans" font-size="14.00">(Modell)</text>
</g>
<!-- threats&#45;&gt;system -->
<g id="edge4" class="edge">
<title>threats&#45;&gt;system</title>
<path fill="none" stroke="black" d="M209.18,-224.25C223,-209.86 243.28,-188.75 260.18,-171.15"/>
<polygon fill="black" stroke="black" points="262.14,-173.15 265.66,-165.44 258.1,-169.27 262.14,-173.15"/>
<text xml:space="preserve" text-anchor="middle" x="270.94" y="-193.55" font-family="Fira Sans" font-size="9.00">interagieren mit</text>
</g>
<!-- assets&#45;&gt;risks -->
<g id="edge3" class="edge">
<title>assets&#45;&gt;risks</title>
<path fill="none" stroke="black" d="M85.8,-119.8C93.81,-105.68 106.88,-86.11 123.25,-74 142.1,-60.06 166.35,-50.79 187.44,-44.81"/>
<polygon fill="black" stroke="black" points="188.1,-47.53 195.11,-42.76 186.65,-42.12 188.1,-47.53"/>
<text xml:space="preserve" text-anchor="middle" x="146.12" y="-77.45" font-family="Fira Sans" font-size="9.00">bestimmen</text>
</g>
<!-- security_mitigations -->
<g id="node6" class="node">
<title>security_mitigations</title>
<ellipse fill="none" stroke="black" cx="479" cy="-138.05" rx="116.45" ry="18"/>
<text xml:space="preserve" text-anchor="middle" x="479" y="-133.38" font-family="Fira Sans" font-size="14.00">Sicherheitsmaßnahmen</text>
</g>
<!-- risks&#45;&gt;security_mitigations -->
<g id="edge6" class="edge">
<title>risks&#45;&gt;security_mitigations</title>
<path fill="none" stroke="black" d="M264.51,-47.34C305.91,-64.66 381.67,-96.35 431.18,-117.05"/>
<polygon fill="black" stroke="black" points="429.94,-119.57 438.4,-120.07 432.1,-114.4 429.94,-119.57"/>
<text xml:space="preserve" text-anchor="middle" x="333.15" y="-87.5" font-family="Fira Sans" font-size="9.00">führen zu</text>
</g>
<!-- security_concept -->
<g id="node5" class="node">
<title>security_concept</title>
<ellipse fill="none" stroke="green" cx="459" cy="-242.1" rx="95.93" ry="18"/>
<text xml:space="preserve" text-anchor="middle" x="459" y="-237.43" font-family="Fira Sans" font-size="14.00">Sicherheitskonzept</text>
</g>
<!-- security_concept&#45;&gt;threats -->
<g id="edge7" class="edge">
<title>security_concept&#45;&gt;threats</title>
<path fill="none" stroke="black" d="M362.74,-242.1C333.64,-242.1 301.98,-242.1 273.98,-242.1"/>
<polygon fill="black" stroke="black" points="274.15,-239.3 266.15,-242.1 274.15,-244.9 274.15,-239.3"/>
<text xml:space="preserve" text-anchor="middle" x="313.64" y="-248.55" font-family="Fira Sans" font-size="9.00">wirkt gegen</text>
</g>
<!-- security_concept&#45;&gt;system -->
<g id="edge9" class="edge">
<title>security_concept&#45;&gt;system</title>
<path fill="none" stroke="black" d="M431.63,-224.48C404.92,-208.25 363.9,-183.33 333.04,-164.59"/>
<polygon fill="black" stroke="black" points="334.62,-162.27 326.32,-160.51 331.71,-167.06 334.62,-162.27"/>
<text xml:space="preserve" text-anchor="middle" x="355.65" y="-195.44" font-family="Fira Sans" font-size="9.00">beeinflusst</text>
</g>
<!-- security_concept&#45;&gt;security_mitigations -->
<g id="edge5" class="edge">
<title>security_concept&#45;&gt;security_mitigations</title>
<path fill="none" stroke="black" d="M462.39,-223.79C465.51,-207.89 470.18,-184.07 473.77,-165.73"/>
<polygon fill="black" stroke="black" points="476.51,-166.32 475.3,-157.93 471.01,-165.25 476.51,-166.32"/>
<text xml:space="preserve" text-anchor="middle" x="485.65" y="-193.55" font-family="Fira Sans" font-size="9.00">setzt um</text>
</g>
<!-- security_mitigations&#45;&gt;risks -->
<g id="edge8" class="edge">
<title>security_mitigations&#45;&gt;risks</title>
<path fill="none" stroke="black" d="M449.81,-120.39C425.28,-106.8 389.03,-87.68 356,-74 331.07,-63.67 302.35,-54.31 279.15,-47.35"/>
<polygon fill="black" stroke="black" points="280.14,-44.73 271.68,-45.14 278.55,-50.1 280.14,-44.73"/>
<text xml:space="preserve" text-anchor="middle" x="401.94" y="-77.45" font-family="Fira Sans" font-size="9.00">verringern</text>
</g>
</g>
</svg>
