<svg xmlns="http://www.w3.org/2000/svg" xmlns:xlink="http://www.w3.org/1999/xlink" contentStyleType="text/css" data-diagram-type="SEQUENCE" height="1096px" preserveAspectRatio="none" style="width:1352px;height:1096px;background:#FFFFFF;" version="1.1" viewBox="0 0 1352 1096" width="1352px" zoomAndPan="magnify"><?plantuml $version$?><defs/><g><g class="title" data-source-line="9"><text fill="#000000" font-family="'Fira Sans'" font-size="28" font-weight="700" lengthAdjust="spacing" textLength="399.8384" x="469.7523" y="56.1799">Kubernetes Token-Self-Service</text></g><g class="participant-lifeline" data-entity-uid="part1" data-qualified-name="u" data-source-line="10" id="part1-lifeline"><g><title>Nutzer</title><rect fill="#000000" fill-opacity="0.00000" height="705.7517" width="16" x="40.7578" y="231.9997"/><line style="stroke:#181818;stroke-width:1;stroke-dasharray:10,10;" x1="48" x2="48" y1="231.9997" y2="937.7513"/></g></g><g class="participant-lifeline" data-entity-uid="part2" data-qualified-name="c" data-source-line="11" id="part2-lifeline"><g><title>Self-Service Client</title><rect fill="#000000" fill-opacity="0.00000" height="705.7517" width="16" x="397.5616" y="231.9997"/><line style="stroke:#181818;stroke-width:1;stroke-dasharray:10,10;" x1="404.6802" x2="404.6802" y1="231.9997" y2="937.7513"/></g></g><g class="participant-lifeline" data-entity-uid="part3" data-qualified-name="a" data-source-line="12" id="part3-lifeline"><g><title>OpenID Provider</title><rect fill="#000000" fill-opacity="0.00000" height="705.7517" width="16" x="673.164" y="231.9997"/><line style="stroke:#181818;stroke-width:1;stroke-dasharray:10,10;" x1="679.3466" x2="679.3466" y1="231.9997" y2="937.7513"/></g></g><g class="participant-lifeline" data-entity-uid="part4" data-qualified-name="b" data-source-line="13" id="part4-lifeline"><g><title>Self-Service Backend</title><rect fill="#000000" fill-opacity="0.00000" height="705.7517" width="16" x="961.7903" y="231.9997"/><line style="stroke:#181818;stroke-width:1;stroke-dasharray:10,10;" x1="969.346" x2="969.346" y1="231.9997" y2="937.7513"/></g></g><g class="participant-lifeline" data-entity-uid="part5" data-qualified-name="k" data-source-line="14" id="part5-lifeline"><g><title>K8s API Server</title><rect fill="#000000" fill-opacity="0.00000" height="705.7517" width="16" x="1238.0966" y="231.9997"/><line style="stroke:#181818;stroke-width:1;stroke-dasharray:10,10;" x1="1244.8502" x2="1244.8502" y1="231.9997" y2="937.7513"/></g></g><g class="participant participant-head" data-entity-uid="part1" data-qualified-name="u" data-source-line="10" id="part1-head"><text fill="#000000" font-family="'Fira Sans'" font-size="22" lengthAdjust="spacing" textLength="65.5155" x="10" y="226.1697">Nutzer</text><ellipse cx="48.7578" cy="102.5999" fill="#E2E2F0" rx="16" ry="16" style="stroke:#181818;stroke-width:1;"/><path d="M48.7578,118.5999 L48.7578,172.5999 M22.7578,134.5999 L74.7578,134.5999 M48.7578,172.5999 L22.7578,202.5999 M48.7578,172.5999 L74.7578,202.5999" fill="none" style="stroke:#181818;stroke-width:1;"/></g><g class="participant participant-tail" data-entity-uid="part1" data-qualified-name="u" data-source-line="10" id="part1-tail"><text fill="#000000" font-family="'Fira Sans'" font-size="22" lengthAdjust="spacing" textLength="65.5155" x="10" y="956.3212">Nutzer</text><ellipse cx="48.7578" cy="979.1511" fill="#E2E2F0" rx="16" ry="16" style="stroke:#181818;stroke-width:1;"/><path d="M48.7578,995.1511 L48.7578,1049.1511 M22.7578,1011.1511 L74.7578,1011.1511 M48.7578,1049.1511 L22.7578,1079.1511 M48.7578,1049.1511 L74.7578,1079.1511" fill="none" style="stroke:#181818;stroke-width:1;"/></g><g class="participant participant-head" data-entity-uid="part2" data-qualified-name="c" data-source-line="11" id="part2-head"><rect fill="#E2E2F0" height="54.3998" rx="10" ry="10" style="stroke:#181818;stroke-width:1;" width="209.7627" x="300.6802" y="175.5999"/><text fill="#000000" font-family="'Fira Sans'" font-size="22" lengthAdjust="spacing" textLength="181.7627" x="314.6802" y="210.1697">Self-Service Client</text></g><g class="participant participant-tail" data-entity-uid="part2" data-qualified-name="c" data-source-line="11" id="part2-tail"><rect fill="#E2E2F0" height="54.3998" rx="10" ry="10" style="stroke:#181818;stroke-width:1;" width="209.7627" x="300.6802" y="935.7513"/><text fill="#000000" font-family="'Fira Sans'" font-size="22" lengthAdjust="spacing" textLength="181.7627" x="314.6802" y="970.3212">Self-Service Client</text></g><g class="participant participant-head" data-entity-uid="part3" data-qualified-name="a" data-source-line="12" id="part3-head"><rect fill="#E2E2F0" height="54.3998" rx="10" ry="10" style="stroke:#181818;stroke-width:1;" width="191.6348" x="585.3466" y="175.5999"/><text fill="#000000" font-family="'Fira Sans'" font-size="22" lengthAdjust="spacing" textLength="163.6348" x="599.3466" y="210.1697">OpenID Provider</text></g><g class="participant participant-tail" data-entity-uid="part3" data-qualified-name="a" data-source-line="12" id="part3-tail"><rect fill="#E2E2F0" height="54.3998" rx="10" ry="10" style="stroke:#181818;stroke-width:1;" width="191.6348" x="585.3466" y="935.7513"/><text fill="#000000" font-family="'Fira Sans'" font-size="22" lengthAdjust="spacing" textLength="163.6348" x="599.3466" y="970.3212">OpenID Provider</text></g><g class="participant participant-head" data-entity-uid="part4" data-qualified-name="b" data-source-line="13" id="part4-head"><rect fill="#E2E2F0" height="54.3998" rx="10" ry="10" style="stroke:#181818;stroke-width:1;" width="236.8885" x="851.346" y="175.5999"/><text fill="#000000" font-family="'Fira Sans'" font-size="22" lengthAdjust="spacing" textLength="208.8885" x="865.346" y="210.1697">Self-Service Backend</text></g><g class="participant participant-tail" data-entity-uid="part4" data-qualified-name="b" data-source-line="13" id="part4-tail"><rect fill="#E2E2F0" height="54.3998" rx="10" ry="10" style="stroke:#181818;stroke-width:1;" width="236.8885" x="851.346" y="935.7513"/><text fill="#000000" font-family="'Fira Sans'" font-size="22" lengthAdjust="spacing" textLength="208.8885" x="865.346" y="970.3212">Self-Service Backend</text></g><g class="participant participant-head" data-entity-uid="part5" data-qualified-name="k" data-source-line="14" id="part5-head"><rect fill="#E2E2F0" height="54.3998" rx="10" ry="10" style="stroke:#181818;stroke-width:1;" width="170.493" x="1160.8502" y="175.5999"/><text fill="#000000" font-family="'Fira Sans'" font-size="22" lengthAdjust="spacing" textLength="142.493" x="1174.8502" y="210.1697">K8s API Server</text></g><g class="participant participant-tail" data-entity-uid="part5" data-qualified-name="k" data-source-line="14" id="part5-tail"><rect fill="#E2E2F0" height="54.3998" rx="10" ry="10" style="stroke:#181818;stroke-width:1;" width="170.493" x="1160.8502" y="935.7513"/><text fill="#000000" font-family="'Fira Sans'" font-size="22" lengthAdjust="spacing" textLength="142.493" x="1174.8502" y="970.3212">K8s API Server</text></g><g class="message" data-entity-1="part1" data-entity-2="part2" data-source-line="18" id="msg1"><polygon fill="#181818" points="381.5616,282.3995,401.5616,290.3995,381.5616,298.3995,389.5616,290.3995" style="stroke:#181818;stroke-width:2;stroke-linejoin:miter;stroke-miterlimit:10;"/><line style="stroke:#181818;stroke-width:2;" x1="48.7578" x2="393.5616" y1="290.3995" y2="290.3995"/><text fill="#000000" font-family="'Fira Sans'" font-size="22" font-weight="700" lengthAdjust="spacing" textLength="10.2079" x="62.7578" y="280.5695">1</text><text fill="#000000" font-family="'Fira Sans'" font-size="22" lengthAdjust="spacing" textLength="207.5245" x="80.9657" y="280.5695">fordert K8s Token an</text></g><g class="message" data-entity-1="part2" data-entity-2="part1" data-source-line="19" id="msg2"><polygon fill="#181818" points="70.7578,336.7993,50.7578,344.7993,70.7578,352.7993,62.7578,344.7993" style="stroke:#181818;stroke-width:2;stroke-linejoin:miter;stroke-miterlimit:10;"/><line style="stroke:#181818;stroke-width:2;" x1="58.7578" x2="403.5616" y1="344.7993" y2="344.7993"/><text fill="#000000" font-family="'Fira Sans'" font-size="22" font-weight="700" lengthAdjust="spacing" textLength="11.3739" x="82.7578" y="334.9693">2</text><text fill="#000000" font-family="'Fira Sans'" font-size="22" lengthAdjust="spacing" textLength="289.4299" x="102.1317" y="334.9693">leitet an OpenID Provider um</text></g><g class="message" data-entity-1="part1" data-entity-2="part3" data-source-line="20" id="msg3"><polygon fill="#181818" points="657.164,391.1991,677.164,399.1991,657.164,407.1991,665.164,399.1991" style="stroke:#181818;stroke-width:2;stroke-linejoin:miter;stroke-miterlimit:10;"/><line style="stroke:#181818;stroke-width:2;" x1="48.7578" x2="669.164" y1="399.1991" y2="399.1991"/><text fill="#000000" font-family="'Fira Sans'" font-size="22" font-weight="700" lengthAdjust="spacing" textLength="11.4399" x="62.7578" y="389.3691">3</text><text fill="#000000" font-family="'Fira Sans'" font-size="22" lengthAdjust="spacing" textLength="186.6907" x="82.1977" y="389.3691">authentifiziert sich</text></g><g class="message" data-entity-1="part3" data-entity-2="part2" data-source-line="21" id="msg4"><polygon fill="#181818" points="427.5616,449.4757,407.5616,457.4757,427.5616,465.4757,419.5616,457.4757" style="stroke:#181818;stroke-width:2;stroke-linejoin:miter;stroke-miterlimit:10;"/><line style="stroke:#181818;stroke-width:2;" x1="415.5616" x2="679.164" y1="457.4757" y2="457.4757"/><text fill="#000000" font-family="'Fira Sans'" font-size="22" font-weight="700" lengthAdjust="spacing" textLength="12.4299" x="439.5616" y="447.6457">4</text><text fill="#000000" font-family="'Fira Sans'" font-size="22" lengthAdjust="spacing" textLength="207.1725" x="459.9915" y="447.6457">vergibt Zugriffstoken</text></g><path d="M690,435.1991 L690,457.1991 A10,10 0 0 0 700,467.1991 L892,467.1991 A10,10 0 0 0 902,457.1991 L902,445.1991 L882,425.1991 L700,425.1991 A10,10 0 0 0 690,435.1991" fill="#FEFFDD" style="stroke:#181818;stroke-width:1;"/><path d="M882,425.1991 L882,440.1991 A5,5 0 0 0 887,445.1991 L902,445.1991 L882,425.1991" fill="#FEFFDD" style="stroke:#181818;stroke-width:1;"/><text fill="#000000" font-family="'Fira Sans'" font-size="18" lengthAdjust="spacing" textLength="61.2004" x="702" y="452.5825">JWT mit</text><text fill="#000000" font-family="'Fira Code'" font-size="18" lengthAdjust="spacing" textLength="55.3838" x="767.9705" y="451.8142">email</text><text fill="#000000" font-family="'Fira Sans'" font-size="18" lengthAdjust="spacing" textLength="45.3423" x="828.1242" y="452.5825">Claim</text><g class="message" data-entity-1="part2" data-entity-2="part4" data-source-line="23" id="msg6"><polygon fill="#181818" points="945.7903,507.7523,965.7903,515.7523,945.7903,523.7523,953.7903,515.7523" style="stroke:#181818;stroke-width:2;stroke-linejoin:miter;stroke-miterlimit:10;"/><line style="stroke:#181818;stroke-width:2;" x1="405.5616" x2="957.7903" y1="515.7523" y2="515.7523"/><text fill="#000000" font-family="'Fira Sans'" font-size="22" font-weight="700" lengthAdjust="spacing" textLength="11.7919" x="419.5616" y="505.9224">5</text><text fill="#000000" font-family="'Fira Sans'" font-size="22" lengthAdjust="spacing" textLength="207.5245" x="439.3535" y="505.9224">fordert K8s Token an</text></g><g class="message" data-entity-1="part4" data-entity-2="part3" data-source-line="24" id="msg7"><polygon fill="#181818" points="703.164,565.7523,683.164,573.7523,703.164,581.7523,695.164,573.7523" style="stroke:#181818;stroke-width:2;stroke-linejoin:miter;stroke-miterlimit:10;"/><line style="stroke:#181818;stroke-width:2;" x1="691.164" x2="967.7903" y1="573.7523" y2="573.7523"/><text fill="#000000" font-family="'Fira Sans'" font-size="22" font-weight="700" lengthAdjust="spacing" textLength="12.4079" x="715.164" y="563.9224">6</text><text fill="#000000" font-family="'Fira Sans'" font-size="22" lengthAdjust="spacing" textLength="220.2184" x="735.5719" y="563.9224">validiert Zugriffstoken</text></g><path d="M476,551.7523 L476,571.7523 A10,10 0 0 0 486,581.7523 L658,581.7523 A10,10 0 0 0 668,571.7523 L668,561.7523 L648,541.7523 L486,541.7523 A10,10 0 0 0 476,551.7523" fill="#FEFFDD" style="stroke:#181818;stroke-width:1;"/><path d="M648,541.7523 L648,556.7523 A5,5 0 0 0 653,561.7523 L668,561.7523 L648,541.7523" fill="#FEFFDD" style="stroke:#181818;stroke-width:1;"/><text fill="#000000" font-family="'Fira Sans'" font-size="18" lengthAdjust="spacing" textLength="151.489" x="488" y="568.5825">via JWKS Endpunkt</text><g class="message" data-entity-1="part4" data-entity-2="part4" data-source-line="26" id="msg9"><line style="stroke:#181818;stroke-width:2;" x1="969.7903" x2="1053.7903" y1="658.1521" y2="658.1521"/><line style="stroke:#181818;stroke-width:2;" x1="1053.7903" x2="1053.7903" y1="658.1521" y2="684.1521"/><line style="stroke:#181818;stroke-width:2;" x1="971.7903" x2="1053.7903" y1="684.1521" y2="684.1521"/><polygon fill="#181818" points="991.7903,676.1521,971.7903,684.1521,991.7903,692.1521,983.7903,684.1521" style="stroke:#181818;stroke-width:2;stroke-linejoin:miter;stroke-miterlimit:10;"/><text fill="#000000" font-family="'Fira Sans'" font-size="22" font-weight="700" lengthAdjust="spacing" textLength="10.2959" x="983.7903" y="635.1222">7</text><text fill="#000000" font-family="'Fira Sans'" font-size="22" lengthAdjust="spacing" textLength="169.5308" x="1002.0862" y="621.9223">leitet Namen des</text><text fill="#000000" font-family="'Fira Sans'" font-size="22" lengthAdjust="spacing" textLength="192.4326" x="1002.0862" y="648.3221">ServiceAccounts ab</text></g><path d="M778,635.6756 L778,657.6756 A10,10 0 0 0 788,667.6756 L948,667.6756 A10,10 0 0 0 958,657.6756 L958,645.6756 L938,625.6756 L788,625.6756 A10,10 0 0 0 778,635.6756" fill="#FEFFDD" style="stroke:#181818;stroke-width:1;"/><path d="M938,625.6756 L938,640.6756 A5,5 0 0 0 943,645.6756 L958,645.6756 L938,625.6756" fill="#FEFFDD" style="stroke:#181818;stroke-width:1;"/><text fill="#000000" font-family="'Fira Sans'" font-size="18" lengthAdjust="spacing" textLength="28.4582" x="790" y="653.059">aus</text><text fill="#000000" font-family="'Fira Code'" font-size="18" lengthAdjust="spacing" textLength="55.3838" x="823.2282" y="652.2907">email</text><text fill="#000000" font-family="'Fira Sans'" font-size="18" lengthAdjust="spacing" textLength="45.3423" x="883.382" y="653.059">Claim</text><g class="message" data-entity-1="part4" data-entity-2="part5" data-source-line="28" id="msg11"><polygon fill="#181818" points="1222.0966,730.5519,1242.0966,738.5519,1222.0966,746.5519,1230.0966,738.5519" style="stroke:#181818;stroke-width:2;stroke-linejoin:miter;stroke-miterlimit:10;"/><line style="stroke:#181818;stroke-width:2;" x1="969.7903" x2="1234.0966" y1="738.5519" y2="738.5519"/><text fill="#000000" font-family="'Fira Sans'" font-size="22" font-weight="700" lengthAdjust="spacing" textLength="12.7819" x="983.7903" y="728.7219">8</text><text fill="#000000" font-family="'Fira Sans'" font-size="22" lengthAdjust="spacing" textLength="207.5245" x="1004.5722" y="728.7219">fordert K8s Token an</text></g><g class="message" data-entity-1="part5" data-entity-2="part4" data-source-line="29" id="msg12"><polygon fill="#181818" points="991.7903,784.9517,971.7903,792.9517,991.7903,800.9517,983.7903,792.9517" style="stroke:#181818;stroke-width:2;stroke-linejoin:miter;stroke-miterlimit:10;"/><line style="stroke:#181818;stroke-width:2;" x1="979.7903" x2="1244.0966" y1="792.9517" y2="792.9517"/><text fill="#000000" font-family="'Fira Sans'" font-size="22" font-weight="700" lengthAdjust="spacing" textLength="12.3199" x="1036.768" y="783.1217">9</text><text fill="#000000" font-family="'Fira Sans'" font-size="22" lengthAdjust="spacing" textLength="175.0088" x="1057.0879" y="783.1217">sendet K8s Token</text></g><g class="message" data-entity-1="part4" data-entity-2="part2" data-source-line="30" id="msg13"><polygon fill="#181818" points="427.5616,839.3515,407.5616,847.3515,427.5616,855.3515,419.5616,847.3515" style="stroke:#181818;stroke-width:2;stroke-linejoin:miter;stroke-miterlimit:10;"/><line style="stroke:#181818;stroke-width:2;" x1="415.5616" x2="967.7903" y1="847.3515" y2="847.3515"/><text fill="#000000" font-family="'Fira Sans'" font-size="22" font-weight="700" lengthAdjust="spacing" textLength="23.0778" x="749.7037" y="837.5216">10</text><text fill="#000000" font-family="'Fira Sans'" font-size="22" lengthAdjust="spacing" textLength="175.0088" x="780.7815" y="837.5216">sendet K8s Token</text></g><g class="message" data-entity-1="part2" data-entity-2="part1" data-source-line="31" id="msg14"><polygon fill="#181818" points="70.7578,893.7513,50.7578,901.7513,70.7578,909.7513,62.7578,901.7513" style="stroke:#181818;stroke-width:2;stroke-linejoin:miter;stroke-miterlimit:10;"/><line style="stroke:#181818;stroke-width:2;" x1="58.7578" x2="403.5616" y1="901.7513" y2="901.7513"/><text fill="#000000" font-family="'Fira Sans'" font-size="22" font-weight="700" lengthAdjust="spacing" textLength="20.4158" x="188.137" y="891.9214">11</text><text fill="#000000" font-family="'Fira Sans'" font-size="22" lengthAdjust="spacing" textLength="175.0088" x="216.5528" y="891.9214">sendet K8s Token</text></g><?plantuml-src VLF1Rjim3BthAmZlaCFG8UamR0s60adN05tGha0o31XsaMNQ8InBcKJbaAyVRMUjqwIz-A3t-FWUIKUZBSAbYZMvhGwwWG9BdImllECLxH4cam7eFECJSdM-wa4t2Dc2WeQLTZ4xPTrxv-DM6onUy6zyWKD-yCaLnWU70IRZ0H3nRq9dy1vZr1NEB5KE2WfecBnJYeabrZBbABMC4TQ-HdUnGblA9-p8eDA6VO27n7jHrn6I4cqcGrlj6B8X5suieUEifPbZseyjkhjly1ZyZWeC7KM_eJJNHfmK7Iy_vYs_H9Wzta5BFIZLIkd4tgL6agXHEtxm0a8ExsxdLny_BwQmqGnpbEWRfYgv2bgTBY_i4s28ZDQYKmakhi5CeVH1ZFA0ffqoBPYcO94OMLxWHJ18JQ-Wfo2MDZ8EAcbFhL8air7w82_kAiePVgSgK5b6RbkepdcWQiDJ-Fvh3Gr9u0mRJJRBPBoQcjv3_eh1_D1xfoqLNTSp3IoMehyZBJsMAxXrnJQvcllY_2bTUt5oBXZ_kCDQPiR8gR6iBXygwHHFN7PQzIikwqEZA2l60TPNcJF0_y6V06e4p_TkiHBy-PySdq7ddQ7rXapjvBU0yOTFmkeno3spR_eDo2l0rv_ln-FBsVKRvnEFxsS48jJBgNy0?></g></svg>